<?xml version="1.0" encoding="utf-8"?>
<!-- Generator: Adobe Illustrator 21.0.0, SVG Export Plug-In . SVG Version: 6.00 Build 0)  -->
<svg version="1.1" id="Untitled-1_xA0_Image_1_" xmlns="http://www.w3.org/2000/svg" xmlns:xlink="http://www.w3.org/1999/xlink"
	 x="0px" y="0px" viewBox="0 0 810.3 1812.9" style="enable-background:new 0 0 810.3 1812.9;" xml:space="preserve">
<style type="text/css">
	.st0{fill:#CC3333;}
</style>
<g>
	<path class="st0" d="M678.2,1249.1c-0.4,0.1-0.8,0.4-1.3,0.4c-180.9,0-361.9,0-542.8,0c-0.6,0-1.2-0.2-1.6-0.2
		c-0.4-0.3-0.5-0.4-0.6-0.5c-0.1-0.1-0.1-0.3-0.2-0.4C87.9,833.8,44,419.2,0.1,4.6C0,3.6,0,2.7,0,1.7c0-0.3,0.2-0.6,0.3-1.2
		C1.1,0.4,2,0.1,2.9,0.1C4,0,5.1,0,6.2,0C272.1,0,538,0,803.9,0c2,0,4.1-0.2,6,0.2c0.2,0.7,0.4,1,0.4,1.3c0,1,0,1.9-0.1,2.9
		C766.4,419,722.5,833.6,678.6,1248.2C678.6,1248.5,678.4,1248.7,678.2,1249.1z M123.7,155.1c0.3,0,0.5-0.1,0.8-0.1
		c0.6,6.8,1.3,13.7,1.8,20.5c1.1,12.7,2.2,25.5,3.3,38.2c0.7,8.4,1.4,16.9,2.2,25.3c1.1,12.9,2.3,25.8,3.5,38.7
		c1.1,12.6,2.1,25.2,3.3,37.8c1.1,12.4,2.3,24.8,3.4,37.3c1.3,14.8,2.6,29.6,3.9,44.4c0.1,0.9,0.4,1.8,0.5,2.7
		c0.9,0.1,1.5,0.3,2.1,0.3c14.2,0,28.5,0,42.7,0c0.7,0,1.5-0.3,2.3-0.4c0.1-0.9,0.3-1.5,0.3-2.1c0.4-5.7,0.7-11.5,1.1-17.2
		c0.7-11.7,1.5-23.3,2.3-35c0.9-13.2,1.7-26.5,2.6-39.7c0.8-11.5,1.5-23,2.2-34.5c0.8-12.6,1.7-25.2,2.5-37.8
		c0.8-11.8,1.5-23.6,2.3-35.4c0.8-12.6,1.7-25.2,2.5-37.8c0.8-11.7,1.5-23.3,2.2-35c0.8-12.6,1.7-25.2,2.5-37.8
		c0.9-12.9,1.7-25.9,2.6-38.8c0.5-7,0.9-14,1.3-21.1c0.1-1.1-0.1-2.1-0.2-3.6c-6-0.1-11.7-0.1-17.4,0c-5.7,0.1-11.4-0.4-17.3,0.3
		c-0.2,1.3-0.3,2.4-0.4,3.5c-0.1,1.3-0.1,2.6-0.2,3.8c0,1.1-0.1,2.2-0.1,3.4c-0.1,1.3-0.1,2.6-0.2,3.8c-0.1,1.1-0.2,2.2-0.3,3.4
		c-0.1,1.3-0.1,2.6-0.2,3.8c-0.1,1.1-0.1,2.2-0.1,3.4c0,1.3-0.1,2.6-0.1,3.8c-0.1,1.1-0.1,2.2-0.2,3.4c-0.1,1.3-0.2,2.6-0.3,3.8
		c-0.1,1.1-0.1,2.2-0.2,3.4c-0.1,1.3-0.1,2.6-0.2,3.8c0,1.1-0.1,2.2-0.1,3.4c-0.1,1.3-0.1,2.6-0.2,3.8c-0.1,1.1-0.2,2.2-0.2,3.4
		c-0.1,1.3-0.2,2.6-0.2,3.8c-0.1,1.1-0.1,2.2-0.1,3.4c-0.1,1.3-0.1,2.6-0.1,3.8c0,1.1-0.1,2.2-0.2,3.4c-0.1,1.3-0.2,2.6-0.3,3.8
		c-0.1,1.1-0.1,2.2-0.2,3.4c-0.1,1.3-0.1,2.6-0.2,3.8c0,1.1-0.1,2.2-0.1,3.4c-0.1,1.3-0.1,2.6-0.2,3.8c-0.1,1.1-0.2,2.2-0.2,3.4
		c-0.1,1.3-0.2,2.6-0.3,3.8c-0.1,1.1-0.1,2.2-0.1,3.4c0,1.3-0.1,2.6-0.1,3.8c0,1.1-0.1,2.2-0.1,3.4c-0.1,1.3-0.2,2.6-0.3,3.8
		c-0.1,1.1-0.2,2.2-0.2,3.4c-0.1,1.3-0.1,2.6-0.2,3.8c0,1.1-0.1,2.2-0.1,3.4c0,1.3-0.1,2.6-0.2,3.8c-0.1,1.1-0.1,2.2-0.2,3.4
		c-0.1,1.3-0.2,2.6-0.3,3.8c-0.1,1.1-0.1,2.2-0.2,3.4c-0.1,1.3-0.1,2.6-0.1,3.8c0,1.1-0.1,2.2-0.1,3.4c-0.1,1.3-0.1,2.6-0.2,3.8
		c-0.1,1.1-0.2,2.2-0.2,3.4c-0.1,1.3-0.2,2.6-0.2,3.8c-0.1,1.1-0.1,2.2-0.1,3.4c0,1.3-0.1,2.6-0.1,3.8c0,1.1-0.1,2.2-0.2,3.4
		c-0.1,1.3-0.2,2.6-0.3,3.8c-0.1,1.1-0.1,2.2-0.2,3.4c-0.1,1.3-0.1,2.6-0.2,3.8c0,1.1-0.1,2.2-0.1,3.4c-0.1,1.3-0.1,2.6-0.2,3.8
		c-0.1,1.1-0.2,2.2-0.3,3.4c-0.1,1.3-0.1,2.6-0.2,3.8c-0.1,1.1-0.1,2.2-0.1,3.4c0,1.3-0.1,2.6-0.2,3.8c-0.1,1.1-0.1,2.2-0.2,3.4
		c-0.1,1.3-0.2,2.6-0.3,3.8c-0.1,1.1-0.2,2.2-0.2,3.4c-0.1,1.3-0.1,2.6-0.2,3.8c0,1.1-0.1,2.2-0.1,3.4c-0.1,1.3-0.1,2.6-0.2,3.8
		c-0.1,1.1-0.2,2.2-0.2,3.4c-0.1,1.3-0.2,2.6-0.2,3.8c-0.1,1.1-0.1,2.2-0.1,3.4c0,1.3-0.1,2.6-0.2,3.8c0,1.1-0.1,2.2-0.2,3.4
		c-0.1,1.3-0.2,2.6-0.3,3.8c-0.1,1.1-0.2,2.2-0.2,3.4c-0.1,1.3-0.1,2.6-0.2,3.8c0,1.1-0.1,2.2-0.1,3.4c0,1.3-0.1,2.6-0.2,3.8
		c-0.1,1.1-0.2,2.2-0.2,3.4c-0.1,1.3-0.2,2.6-0.3,3.8c-0.1,1.1-0.1,2.2-0.2,3.4c-0.1,1.3-0.1,2.6-0.1,3.8c0,1.1-0.1,2.2-0.1,3.4
		c-0.1,1.3-0.2,2.6-0.3,3.8c-0.1,1.1-0.2,2.2-0.2,3.4c-0.1,1.3-0.1,2.6-0.2,3.8c0,1.1-0.1,2.2-0.1,3.4c0,1.3,0,2.6-0.2,3.8
		c-0.1,1,0.2,2.2-1.2,3.5c-0.5-4.4-0.6-8.2-0.9-11.9c-0.4-4-0.6-8-0.9-12c-0.3-3.8-0.6-7.7-0.9-11.5c-0.3-3.8-0.6-7.7-0.9-11.5
		c-0.3-4-0.6-8-0.9-12c-0.3-3.8-0.6-7.7-0.9-11.5c-0.3-3.8-0.6-7.7-0.9-11.5c-0.3-4-0.6-8-0.9-12c-0.3-3.8-0.6-7.7-0.9-11.5
		c-0.3-3.8-0.6-7.7-0.9-11.5c-0.3-4-0.6-8-0.9-12c-0.3-3.8-0.6-7.7-0.8-11.5c-0.3-3.8-0.6-7.7-0.9-11.5c-0.3-3.8-0.5-7.7-0.8-11.5
		c-0.3-4-0.6-8-0.9-12c-0.3-3.8-0.6-7.7-0.9-11.5c-0.3-3.8-0.6-7.7-0.9-11.5c-0.3-4-0.6-8-0.9-12c-0.3-3.8-0.6-7.7-0.9-11.5
		c-0.3-3.8-0.6-7.7-0.9-11.5c-0.3-4-0.6-8-0.9-12c-0.3-3.8-0.6-7.7-0.9-11.5c-0.3-3.8-0.6-7.7-0.9-11.5c-0.3-4-0.5-8-0.9-12
		c-0.4-3.8,0.2-7.7-1.3-11.4c-0.7-0.1-1.4-0.3-2-0.3c-13.3,0-26.6,0-39.8,0c-0.7,0-1.5,0.4-2.2,0.6c-0.1,1.6-0.3,3.1-0.4,4.5
		c-0.4,8.5-0.7,16.9-1.1,25.4c-0.8,18.5-1.6,37.1-2.3,55.6c-0.8,19.7-1.5,39.3-2.3,59c-1.1,27-2.3,54-3.4,81
		c-0.8,19.7-1.5,39.3-2.3,59c-0.1,1.4-0.1,2.9-0.3,4.3c0,0.4-0.4,0.7-0.8,1.3c-0.2-0.7-0.4-1.1-0.5-1.6c-0.4-4.6-0.8-9.2-1.2-13.9
		c-1.1-12.3-2.1-24.5-3.2-36.8c-1.1-12.9-2.3-25.8-3.4-38.7c-1.1-12.7-2.2-25.5-3.3-38.2c-1.1-12.9-2.3-25.8-3.4-38.7
		c-1.1-12.6-2.2-25.2-3.3-37.8c-1.1-12.6-2.3-25.2-3.4-37.8c-1.3-14.8-2.6-29.6-3.9-44.5c-0.1-0.9-0.4-1.8-0.7-2.9
		c-12.4,0-24.5,0-36.6,0c-0.6,0-1.2,0.3-1.8,0.4c-0.6,2.4,0,4.6,0.2,6.8c0.8,7.8,1.6,15.6,2.4,23.4c1.1,11,2.2,22,3.3,32.9
		c1.2,11.5,2.3,22.9,3.5,34.4c1.1,10.8,2.2,21.6,3.3,32.5c1.1,11,2.3,22,3.4,32.9c1.1,10.8,2.1,21.6,3.2,32.5
		c1.4,14.2,2.9,28.3,4.4,42.5c1.4,14,2.8,28,4.2,42c1.5,14.3,3,28.6,4.4,43c1.7,16.9,3.4,33.7,5.1,50.6c0.1,0.8,0.4,1.5,0.7,2.5
		c15.9,0.1,31.7,0,47.6,0c0.8,0,1.5-0.2,2.6-0.4c0.2-2.2,0.4-4.2,0.5-6.3c0.7-13.3,1.4-26.5,2.1-39.8c0.8-15.5,1.5-31,2.3-46.5
		c1.4-26.7,2.9-53.3,4.3-80c1.2-22,2.2-44.1,3.3-66.1C123.2,159.2,123.5,157.1,123.7,155.1z M544.9,1220.9c1.5,0.8,3.2,0.5,4.7,0.5
		c10.9,0,21.8,0,32.6,0c7.2,0,14.4,0,21.6,0c21.4-0.1,37.9-9.2,49.4-27.2c2.7-4.3,5.1-8.9,7.2-13.5c5.5-12.2,8.6-25.1,10.6-38.3
		c1.6-10.4,2.8-20.9,4.2-31.4c1.8-13.8,3.6-27.6,5.5-41.4c1.5-10.9,2.9-21.9,4.4-32.8c1.8-13.3,3.5-26.6,5.2-40
		c1.8-13.3,3.6-26.6,5.3-39.9c1.8-14.3,4-28.5,4.8-42.9c0.7-13.8,0.3-27.5-2.6-41.1c-1.9-9.3-5-18.2-10.5-26.1
		c-6-8.7-14.1-14.7-24.2-17.8c-5.6-1.7-11.2-2.5-17-2.5c-22.1,0-44.2,0-66.2,0c-1.2,0-2.5,0.2-3.7,0.2c-0.3,0.6-0.6,1.1-0.6,1.5
		c-10.3,130.4-20.6,260.9-30.9,391.3C544.6,1219.9,544.8,1220.4,544.9,1220.9z M251.6,1020C251.6,1020,251.6,1020,251.6,1020
		c0.7,15.3,1.5,30.7,2.2,46c0.3,6.4,0.6,12.8,0.9,19.2c0.8,15.7,1.7,31.3,2.4,47c0.4,8.6,0.9,17.3,2.1,25.8
		c1.5,10.2,3.8,20.1,7.7,29.6c3.1,7.6,7.1,14.7,12.5,20.9c7.5,8.6,16.8,14.1,28,16.4c6.5,1.3,13,1.5,19.6,0.9
		c13.7-1.4,25-7.2,33.7-18.1c4.2-5.3,7.4-11.2,9.9-17.5c4.6-11.6,6.9-23.6,7.6-36c0.6-10.5,0.7-21.1,0.7-31.7
		c0.2-62.9,0.4-125.7,0.6-188.6c0-12.3-0.4-24.6-2.2-36.8c-1.6-11-4-21.7-8-32c-3.5-9-7.9-17.5-14.1-24.9
		c-7.5-9-16.7-15.3-28.1-18.3c-8.4-2.2-17-2.7-25.7-1.4c-11.1,1.6-20.8,6.1-28.9,13.9c-5.6,5.4-9.9,11.7-13.3,18.7
		c-4.8,9.7-7.8,19.9-9.6,30.5c-2,11.5-3,23.2-2.8,34.9c0.1,8,0.5,16,0.9,24c0.4,9.3,0.9,18.5,1.3,27.8
		C249.9,986.8,250.8,1003.4,251.6,1020z M404.2,1036.9C404.2,1036.9,404.2,1036.9,404.2,1036.9c-0.3,27.3-0.7,54.7-1,82
		c-0.1,12.2-0.7,24.3,0,36.5c0.6,8.8,1.8,17.5,4.1,26c2.5,9.2,6.1,17.8,11.9,25.5c6.6,8.8,15.1,14.7,25.7,17.4
		c8.6,2.2,17.4,2.4,26.2,0.9c14.1-2.4,25.2-9.8,33.6-21.2c5.3-7.1,9.1-15,11.9-23.4c4.3-12.6,6.4-25.7,7.5-39c1.1-14.5,2-29,3-43.6
		c1.1-16.8,2.2-33.5,3.3-50.3c1.4-21.1,2.9-42.1,4.3-63.2c1.1-16.9,2.1-33.8,3.3-50.7c1-13.6,1.1-27.2-0.2-40.7
		c-1-10.1-2.8-19.9-6-29.5c-3-9-7.1-17.5-13.2-24.9c-6.8-8.3-15.3-14-25.7-16.8c-3.7-1-7.5-1.7-11.3-1.9
		c-19.5-1.4-36.2,4.7-49.3,19.6c-4.3,5-7.9,10.5-10.9,16.3c-5.4,10.6-8.9,21.9-11.3,33.5c-2.8,13.8-4,27.8-4.2,41.9
		C405.2,966.6,404.7,1001.7,404.2,1036.9z M531.1,24.2c-0.2,1.1-0.4,2.1-0.5,3c-0.4,5.6-0.7,11.2-1,16.8c-1.1,19.5-2.3,39-3.4,58.4
		c-0.8,14.1-1.5,28.1-2.3,42.2c-1.4,24.7-2.9,49.5-4.4,74.2c-1.3,22.4-2.6,44.7-3.8,67.1c-1.1,20.1-2.2,40.2-3.3,60.4
		c-0.4,6.5-0.8,13.1-1.1,19.6c-0.6,10.2-1.1,20.4-1.7,30.7c-0.1,1.1,0,2.2,0,3.2c0.7,0.3,1.2,0.5,1.6,0.5c11.5,0,23,0,34.5,0
		c0.4,0,0.9-0.3,1.7-0.5c0.2-2.8,0.5-5.6,0.7-8.5c0.8-12.4,1.5-24.9,2.3-37.4c1.1-16.9,2.3-33.8,3.4-50.7
		c1.1-17.4,2.2-34.8,3.3-52.2c0.1-1.7-0.1-3.5,1.2-5.3c5.3,0,10.7-0.3,16.1,0.2c1,0.1,1.9,0.3,2.8,0.5c6.5,1.3,10.9,5.2,13,11.4
		c1.1,3.3,1.7,6.8,2.2,10.3c1.3,9.9,0.3,19.8-0.4,29.7c-0.7,11.2-1.6,22.3-2.4,33.5c-0.9,12.4-1.9,24.9-2.6,37.3
		c-0.4,6.7-0.4,13.4-0.3,20.1c0.1,3.8,0.5,7.6,1.6,11.3c0.8,0.1,1.4,0.3,2,0.3c11.4,0,22.7,0,34.1,0c0.7,0,1.4-0.3,2-0.5
		c-0.5-5-1.3-9.8-1.4-14.6c-0.1-6.1,0.1-12.2,0.5-18.2c0.7-10.7,1.6-21.4,2.4-32.1c0.7-9.2,1.4-18.5,2.2-27.7c1-11.3,1.9-22.6,2-34
		c0.1-8.3-0.2-16.6-1.5-24.9c-0.8-5.4-2-10.7-4.1-15.7c-2.8-6.6-6.9-12.2-13.3-15.9c-0.7-0.4-1.2-0.9-2-1.6c0.9-0.8,1.6-1.5,2.3-2
		c5.7-3.8,10.1-8.8,13.7-14.5c3.1-4.9,5.5-10.1,7.4-15.6c4-11.4,6.4-23.1,7.5-35.1c1.3-13.7,2.2-27.4,3.3-41.1
		c0.9-11.5,0.4-23-1.3-34.4c-1.3-8.6-3.5-16.9-7.6-24.6c-5.7-10.7-14.4-17.8-26-21.3c-6-1.8-12.2-2.6-18.5-2.6
		c-19-0.1-38.1,0-57.1,0C533.7,23.9,532.5,24.1,531.1,24.2z M316.8,399.7c4.4,0.8,21.7,1,35,0.6c0.9,0,1.8-0.2,3-0.4
		c0.1-1.9,0.2-3.6,0.3-5.4c0.4-17.1,0.8-34.2,1.3-51.3c1.1-41.1,2.3-82.2,3.4-123.3c0.8-29.3,1.5-58.5,2.3-87.8
		c0.8-29.7,1.7-59.5,2.5-89.2c0.1-5.3,0.2-10.6,0.3-15.8c0-0.9-0.2-1.8-0.3-2.6c-4.2-0.7-35.8-0.7-40-0.1c-1.1,1.6-0.7,3.4-0.7,5.1
		c-0.4,17.1-0.7,34.2-1,51.3c-0.5,26.7-0.9,53.4-1.4,80.1c-0.1,6.2-0.3,12.5-0.5,18.7c0,1.2-0.3,2.5-0.4,3.6
		c-4.1,0.8-24.5,1-39.1,0.5c-0.9,0-1.8-0.3-2.8-0.4c-0.6-2.1-0.4-4-0.4-5.9c0.4-41.1,0.8-82.2,1.3-123.3c0.1-8.6,0.3-17.3,0.4-25.9
		c0-1.4,0.4-2.9-1.1-4.4c-4.2,0-8.6,0-13.1,0c-4.3,0-8.6-0.1-13,0c-4.4,0.1-8.9-0.3-13.6,0.3c-0.1,1.8-0.2,3.4-0.2,5
		c-0.2,56.3-0.5,112.6-0.7,168.9c-0.2,53.1-0.3,106.2-0.5,159.3c0,12.5-0.1,25-0.1,37.4c0,1.7-0.4,3.5,0.5,5.1
		c0.6,0.1,1.1,0.3,1.5,0.3c11.2,0,22.4,0,33.6,0c0.7,0,1.5-0.4,2.4-0.7c0-2.1,0-4,0-5.9c0.4-34.7,0.9-69.4,1.3-104.1
		c0.2-15.7,0.3-31.4,0.5-47c0-1.5-0.5-3.2,0.8-4.6c0.5-0.1,0.9-0.3,1.4-0.3c12.6,0,25.3,0,37.9,0c0.6,0,1.2,0.3,2,0.5
		c0.2,18-0.6,35.9-0.9,53.8c-0.3,17.9-0.7,35.8-1,53.7C317.5,363.7,317.2,381.6,316.8,399.7z M547.2,782.7c1.2,0.2,1.8,0.4,2.5,0.4
		c11,0,22.1-0.1,33.1-0.1c0.4,0,0.9-0.3,1.5-0.5c0.1-0.7,0.3-1.5,0.4-2.3c0.9-13.7,1.9-27.4,2.8-41.2c0.8-12.1,1.5-24.3,2.3-36.4
		c1.2-18.8,2.5-37.7,3.7-56.5c0.4-6.2,0.8-12.5,1.2-18.7c0.8-11.8,1.6-23.6,2.4-35.4c0.8-12.5,1.5-24.9,2.3-37.4
		c0.9-13.7,1.8-27.5,2.7-41.2c0.7-11,1.4-22,2.2-33c0.8-11.3,1.6-22.7,2.3-34c0.1-0.9-0.1-1.8-0.2-3c-4.8-0.2-9.2-0.1-13.7-0.1
		c-4.6,0-9.3-0.1-13.9,0c-4.4,0.1-8.9-0.3-13.4,0.3c-1.1,5.1-0.7,10.1-1,15c-0.3,4.8-0.5,9.6-0.8,14.4c-0.3,5-0.6,9.9-0.8,14.9
		c-0.3,4.8-0.5,9.6-0.8,14.4c-0.3,5-0.5,9.9-0.7,14.9c-0.2,5-0.5,9.9-0.7,14.9c-0.2,4.8-0.5,9.6-0.8,14.4c-0.3,5-0.6,9.9-0.8,14.9
		c-0.3,4.8-0.5,9.6-0.8,14.4c-0.4,4.9,0.2,9.9-1.1,14.7c-0.7,0.2-1.1,0.4-1.6,0.4c-13,0-25.9,0.1-38.9,0.1c-0.4,0-0.9-0.3-1.6-0.5
		c-0.5-2.8-0.1-5.6,0-8.5c0.9-23.7,1.8-47.3,2.8-71c0.5-11.5,1-23,1.4-34.5c0.4-9.4,0.8-18.9,1.1-28.3c0.1-1.4-0.1-2.8-0.1-4.1
		c-4-0.7-36.4-0.8-40.9-0.2c-0.2,0.3-0.5,0.5-0.5,0.8c-3,111.9-6,223.9-8.9,335.8c0,0.8,0.1,1.5,0.2,2.6c4.3,0.5,8.4,0.2,12.5,0.2
		c4,0,8,0.1,12,0c4.1-0.1,8.3,0.5,12.4-0.5c0.1-1.3,0.3-2.4,0.3-3.5c0.4-9.1,0.7-18.2,1.1-27.3c0.8-20,1.6-40,2.4-59.9
		c0.6-16.5,1.3-32.9,1.9-49.4c0-0.9,0.3-1.8,0.4-2.8c0.9-0.1,1.5-0.3,2.1-0.3c12.5,0,25-0.1,37.4-0.1c0.6,0,1.2,0.3,2.1,0.6
		C552.2,687.4,549.7,734.8,547.2,782.7z M756.1,237.4c0.2-1.3,0.3-2.1,0.4-2.9c0.9-8.3,1.8-16.5,2.6-24.8c0.7-7.3,1.5-14.6,2.2-22
		c0.1-1.2,0.6-2.5-0.8-3.9c-1.4,0-3.1,0-4.9,0c-14.2,0-28.5,0-42.7,0c-1.7,0-3.5,0.4-5.1-0.6c-0.1-0.4-0.3-0.7-0.3-1
		c0-1.1,0-2.2,0.1-3.4c3-32.2,6-64.3,9-96.5c0-0.1,0.1-0.3,0.2-0.4c0.1-0.1,0.2-0.2,0.7-0.8c4.2-0.1,8.8,0,13.4,0
		c4.6,0,9.3,0,13.9,0c4.5,0,9,0,13.4,0c4.6,0,9.3,0,13.9,0c4.6,0,9.2,0,13.8,0c1.2-1.8,1.1-3.6,1.3-5.4c0.8-8,1.7-15.9,2.5-23.9
		c0.9-8.3,1.7-16.5,2.5-24.8c0.1-0.9-0.1-1.8-0.2-3c-1.8-0.1-3.4-0.2-4.9-0.2c-9.1,0-18.2,0-27.4,0c-24.5,0-49,0-73.4,0
		c-1.7,0-3.5-0.4-5.2,0.6c-0.1,0.5-0.4,0.9-0.4,1.4c-10.5,124.3-21,248.6-31.5,372.9c0,0.3,0.2,0.6,0.3,1c0.4,0.2,0.8,0.5,1.2,0.5
		c33.4,0,66.9,0.1,100.3,0.1c0.6,0,1.2-0.3,2.1-0.5c0.6-5.6,1.2-11.1,1.8-16.6c0.5-5.4,1.1-10.8,1.7-16.2c0.6-5.5,1.5-11,1.6-16.9
		c-2.1-0.1-3.8-0.2-5.5-0.2c-18.4,0-36.8,0-55.2,0c-1.7,0-3.5,0.5-5.1-0.6c-0.1-0.4-0.3-0.7-0.3-1c3.2-35.5,6.4-71,9.6-106.6
		c0.1-1,0.2-1.9,0.3-2.9c0-0.1,0.1-0.3,0.2-0.4c0.1-0.1,0.2-0.2,0.6-0.7c5.6-0.2,11.5-0.1,17.4-0.1c5.9,0,11.8,0,17.8,0
		C744,237.6,749.9,237.9,756.1,237.4z M506.7,24.1c-2-0.1-3.8-0.1-5.5-0.1c-21,0-41.9,0-62.9,0c-12.6,0-25.3,0-37.9,0
		c-1.5,0-3.2-0.4-4.8,0.9c-0.1,1.4-0.1,3-0.2,4.6c-0.8,24-1.6,48-2.4,71.9c-1,30.1-1.9,60.1-2.9,90.2c-0.5,16-1,32-1.5,48
		c-0.9,28.3-1.8,56.6-2.7,84.9c-0.8,24-1.6,48-2.4,71.9c0,1.2,0.1,2.4,0.2,4c2,0,3.8,0.1,5.5,0.1c30.9,0,61.7,0,92.6,0
		c1,0,1.9,0.1,2.9,0c0.9-0.1,1.8-0.4,2.7-0.6c0.3-5.7,0.7-11.1,1-16.5c0.3-5.6,0.6-11.2,0.9-16.8c0.2-5.4,0.9-10.7,0.4-16.3
		c-1.2-0.1-2.1-0.2-3.1-0.2c-2.7,0-5.4,0-8.2,0c-16.5,0-32.9,0-49.4,0c-1.7,0-3.5,0.5-5.4-0.9c1.4-34.5,2.7-69.2,4.1-103.8
		c0.1-2.4,0-4.8,0.8-7.4c1.8-0.1,3.5-0.2,5.3-0.2c14.2,0,28.5,0,42.7,0c1.7,0,3.5,0.4,5.4-0.6c0.7-4.3,0.8-8.8,1.1-13.2
		c0.2-4.3,0.4-8.6,0.6-12.9c0.2-4.5,0.5-8.9,0.6-13.4c0.1-4.4,1.1-8.8,0.3-13.5c-1.9,0-3.7-0.1-5.4-0.1c-14.4,0-28.8,0-43.2,0
		c-1.7,0-3.5,0.4-5.2-0.6c-0.1-0.6-0.3-1.3-0.3-1.9c1.3-32.8,2.6-65.5,3.9-98.3c0-0.4,0.3-0.9,0.5-1.4c1.7-0.7,3.4-0.4,5.2-0.4
		c19.7,0,39.3,0,59,0c1.7,0,3.5,0.5,5.1-0.5C504.8,75.6,507.2,28.6,506.7,24.1z M182.4,1220.8c-1.1-13.2-2.2-26.1-3.4-39
		c-1.1-12.9-2.2-25.8-3.3-38.7c-1.1-12.9-2-25.8-3.3-38.7c-1.5-14.9-3.1-35.5-2.8-38.8c1.6-0.7,3.4-0.4,5.1-0.4
		c13.9,0,27.8,0,41.7,0c1.7,0,3.5,0.3,5.2-0.4c0.2-0.5,0.4-1,0.4-1.4c-1-17.6-2.1-35.1-3.2-52.7c0-0.4-0.3-0.9-0.6-1.6
		c-1.7-0.1-3.4-0.2-5.1-0.2c-14.6,0-29.1,0-43.7,0c-1.7,0-3.5,0.5-5.1-0.8c-0.1-0.8-0.2-1.6-0.3-2.4c-0.7-8-1.4-15.9-2.1-23.9
		c-1.1-13.1-2.3-26.1-3.4-39.2c-0.9-10.2-1.8-20.4-2.6-30.6c-0.5-5.9-1-11.8-1.4-17.7c-0.1-0.9,0.2-1.8,0.3-3c4.3,0,8.2,0,12.2,0
		c4,0,8,0,12,0c3.8,0,7.7,0,11.5,0c4,0,8,0,12,0c4,0,8,0.1,12,0c4-0.1,7.9,0.4,11.7-0.4c0.2-0.5,0.4-0.8,0.5-1.1
		c0.1-0.6,0.1-1.3,0-1.9c-1.1-20.1-2.3-40.2-3.5-60.3c0-0.1-0.1-0.3-0.2-0.4c-0.1-0.1-0.2-0.2-0.6-0.6c-1.6-0.5-3.5-0.2-5.4-0.2
		c-35.8,0-71.7,0-107.5,0c-1.1,0-2.2-0.1-3.4,0c-0.9,0.1-1.8,0.3-3,0.6c0.3,3.2,0.5,6.2,0.8,9.2c0.8,7.6,1.6,15.3,2.4,22.9
		c1.1,10.8,2.2,21.6,3.3,32.4c1.2,11.3,2.3,22.6,3.5,33.9c1.1,10.5,2.1,21,3.2,31.5c1.2,11.1,2.3,22.3,3.5,33.4
		c1.1,10.7,2.2,21.3,3.3,32c1.1,11,2.3,21.9,3.4,32.9c1.1,10.7,2.2,21.3,3.3,32c1.1,10.8,2.3,21.6,3.4,32.4
		c1.1,10.8,2.2,21.6,3.3,32.4c1.1,10.8,2.3,21.6,3.4,32.4c1.1,10.7,2.1,21.3,3.2,32c0.2,1.5,0.1,3.2,1.1,4.5
		C149.4,1221.6,178.3,1221.5,182.4,1220.8z M258.3,545.7c0.1-1.4,0.2-2.7,0.2-3.9c-0.3-6.9-0.6-13.7-1.1-20.6
		c-0.8-11.4-2.7-22.5-6-33.5c-2.8-9.4-6.7-18.3-12.4-26.4c-7.8-11-18-18.6-31.2-21.7c-9.5-2.3-19-2.3-28.6-0.3
		c-11.6,2.5-20.9,8.5-27.9,18.1c-3,4.1-5.5,8.6-7.4,13.4c-3.8,9.4-5.8,19.3-6.6,29.4c-1.1,12.5-0.6,24.9,0.9,37.4
		c1.8,15,5.3,29.5,11.4,43.4c4.9,11.4,11.5,21.7,18.8,31.7c6.7,9.2,14.1,17.8,21.7,26.2c4.1,4.5,8.1,9.1,12,13.7
		c5.4,6.4,10.3,13.1,14.5,20.3c9.6,16.8,12.6,35,10.8,54.1c-0.3,3.2-1.2,6.3-2.8,9.1c-2.2,4-5.4,6.6-9.9,7.8
		c-8.8,2.3-17.2-1.1-21.6-9.2c-1.2-2.2-2.3-4.6-2.9-7.1c-0.9-3.9-1.7-7.8-2.1-11.8c-0.6-5.6-0.8-11.2-1.2-16.7
		c-0.2-2.4-0.2-4.7-1-7.3c-4.1-0.3-8.1-0.1-12.1-0.1c-4,0-8-0.1-12,0c-3.9,0.1-7.9-0.4-12,0.5c0,1.4-0.1,2.7,0,4c0.6,7,1,14,1.8,21
		c1.1,10.2,3.1,20.2,6.6,29.9c2.9,8.2,6.8,15.9,12.3,22.7c6.5,8,14.7,13.7,24.7,16.6c3.2,0.9,6.5,1.5,9.9,2c8.3,1,16.6,0.4,24.7-2
		c13.3-3.9,22.3-12.7,28.2-25c4.9-10.1,7-20.9,7.8-32c1-14.3,0.4-28.5-1.9-42.6c-2.4-14.5-6.8-28.3-14-41.1
		c-4.6-8.3-9.8-16.2-15.7-23.5c-6.8-8.3-13.8-16.4-20.8-24.5c-7.2-8.4-14.2-16.9-20.2-26.2c-4.9-7.6-8.9-15.6-11.4-24.2
		c-3.5-11.9-4.9-24.1-3.4-36.5c0.5-3.7,1.4-7.2,3.1-10.5c1.9-3.7,4.7-6.4,8.7-7.8c7.7-2.7,16.1-0.1,21.1,6.3c2.1,2.7,3.5,5.7,4.5,9
		c1.7,5.4,2.7,10.9,3,16.5c0.4,6.1,0.7,12.1,1,18.2c0.1,1.1,0.4,2.1,0.5,3.1c4,0.5,25,0.7,35.3,0.4
		C256.5,546,257.3,545.8,258.3,545.7z M637.8,443.6c-0.2,1.5-0.4,2.7-0.5,4c-0.7,9.4-1.4,18.8-2.1,28.2c-0.8,11-1.7,22-2.5,33
		c-0.8,10.5-1.5,21.1-2.3,31.6c-1.2,15.8-2.4,31.6-3.6,47.4c-0.7,9.9-1.4,19.8-2.2,29.7c-0.9,11.6-1.8,23.3-2.6,34.9
		c-0.7,9.9-1.4,19.8-2.2,29.7c-0.8,11.2-1.7,22.3-2.5,33.5c-0.8,11.2-1.7,22.3-2.5,33.5c-0.7,9.7-1.5,19.5-2.2,29.2
		c-0.1,1.4-0.5,2.8,0.6,4.5c1.7,0,3.6,0.1,5.5,0.1c23.2-0.1,46.4-0.3,69.6-0.4c7.4,0,14.7,0,22.1-0.1c1.2,0,2.6,0.3,3.8-1.2
		c1.4-13.7,2.9-27.7,4.3-41.7c0-0.1-0.1-0.3-0.2-0.4c-0.1-0.1-0.2-0.2-0.6-0.6c-0.7,0-1.6-0.1-2.5-0.1c-3.2,0-6.4,0-9.6,0
		c-15.5,0.1-31,0.2-46.6,0.2c-1.7,0-3.5,0.5-5.3-0.7c0-0.9-0.1-1.9,0-2.8c2.7-31.2,5.5-62.5,8.2-93.7c0.1-0.6,0.4-1.2,0.6-2.1
		c1.7,0,3.5-0.1,5.2-0.1c14.4,0,28.8,0,43.2-0.1c1.5,0,3.2,0.5,4.8-0.9c0.4-3,0.8-6.2,1.1-9.3c0.4-3.2,0.7-6.4,1-9.5
		c0.3-3.2,0.7-6.4,1-9.5c0.3-3.2,0.8-6.4,0.9-9.5c0.1-3.1,1.2-6.2,0.5-9.6c-2-0.1-3.7-0.2-5.4-0.2c-14.4,0-28.8,0.1-43.2,0.1
		c-1.7,0-3.5,0.5-5.2-0.9c0.7-8,1.3-16.2,2-24.3c1.1-13.2,2.3-26.4,3.5-39.7c0.7-8.4,1.4-16.9,2.2-25.3c0.1-1.2,0-2.6,1.5-3.8
		c1.4,0,3.1,0,4.9,0c19.7,0,39.4,0,59-0.1c1.7,0,3.5,0.4,5.4-0.7c0.2-1.7,0.6-3.6,0.8-5.5c0.9-7.9,1.7-15.9,2.6-23.8
		c0.7-6.5,1.4-13,2.1-19.6c0.1-1.1,0.5-2.2-0.5-3.1C746.3,443.2,643.2,443.1,637.8,443.6z M329.1,443.8c0,1.6,0,3,0,4.5
		c0.3,14.7,0.5,29.4,0.9,44.1c0,1.4-0.4,2.9,1.2,4.3c4.3,0.2,8.9,0,13.5,0.1c4.6,0,9.3,0,13.9,0c4.6,0,9.2-0.1,13.7,0.1
		c1.2,2.3,0.8,4.4,0.8,6.4c0.5,84.2,1,168.3,1.5,252.5c0,8,0.1,16,0.2,24c0,1.2,0.3,2.4,0.4,3.6c0.8,0.2,1.3,0.4,1.7,0.4
		c11,0,22.1-0.1,33.1-0.2c0.7,0,1.4-0.4,2.4-0.7c0-2.4,0-4.6,0-6.8c0.5-80.2,1-160.3,1.5-240.5c0.1-11.2,0.1-22.4,0.2-33.6
		c0-1.6-0.3-3.2,0.6-4.7c1.5-0.8,3.2-0.5,4.7-0.5c10.9,0,21.8,0,32.6-0.1c1.6,0,3.2,0.4,4.7-0.7c0.1-0.4,0.3-0.9,0.3-1.4
		c0.3-16.3,0.7-32.6,1-48.9c0-0.7-0.3-1.5-0.5-2.1C452.5,443.1,333.7,443.2,329.1,443.8z M63.7,443.7c-0.6,2.1-0.1,4,0.1,5.9
		c1.1,11.5,2.3,22.9,3.4,34.4c1.1,10.8,2.2,21.6,3.3,32.5c1.1,11.3,2.3,22.6,3.4,33.9c1.1,11.3,2.3,22.6,3.4,33.9
		c1.1,10.8,2.2,21.6,3.3,32.5c1.1,11.1,2.2,22.3,3.3,33.4c1.1,11.3,2.3,22.6,3.4,33.9c1.1,11,2.2,22,3.3,32.9
		c1.1,11.1,2.3,22.3,3.4,33.4c1.1,10.5,2.1,21,3.1,31.5c0.1,0.9,0.5,1.8,0.7,2.6c3.8,0.5,25.1,0.7,34.7,0.3c0.8,0,1.5-0.2,2.4-0.4
		c0-1.4,0.1-2.7,0-3.9c-0.4-5.1-0.9-10.2-1.4-15.3c-1.1-12.7-2.1-25.5-3.3-38.2c-1.4-16.3-2.9-32.5-4.4-48.7
		c-1.1-12.7-2.1-25.5-3.3-38.2c-1.4-16.4-3-32.8-4.4-49.2c-1.4-16.4-2.8-32.8-4.2-49.2c-1.4-16.4-3-32.8-4.4-49.2
		c-1.4-15.3-2.7-30.6-4-45.9c-0.1-0.9-0.4-1.8-0.5-2.6c-4-0.6-29.1-0.8-39.1-0.4C65.3,443.4,64.5,443.6,63.7,443.7z"/>
	<path class="st0" d="M133.4,1288.2c1.2-0.2,1.8-0.4,2.4-0.4c182.9,0,365.7,0.1,548.6,0.1c0.3,0,0.5,0.3,0.9,0.5
		c0.1,0.3,0.3,0.8,0.3,1.2c0,173.6,0,347.2,0,520.8c0,0.6-0.2,1.2-0.3,2c-1,0.2-1.9,0.4-2.8,0.4c-1.4,0.1-2.9,0-4.3,0
		c-179.2,0-358.4,0-537.6,0c-2.2,0-4.4-0.1-6.9-0.1c-0.2-1.2-0.4-2.1-0.4-3c-0.1-1.4,0-2.9,0-4.3c0-170.1,0-340.1,0-510.2
		C133.4,1293,133.4,1290.8,133.4,1288.2z M372.1,1479.5c0-2,0.1-3.7,0.1-5.5c0-13.4,0-26.9,0-40.3c0-3.7,0-7.4,0.3-11
		c0.4-5.9,1.5-11.7,3.9-17.2c3.7-8.6,10-14.3,19.1-16.8c6.3-1.7,12.6-2,19-1c12.8,2,21.1,9.2,25.1,21.5c1.8,5.5,2.6,11.2,2.8,17
		c0.6,15.3-1.2,30.3-5.1,45.1c-3.8,14.2-10.1,27.3-17.4,39.9c-5.5,9.6-11.7,18.7-18,27.8c-7.4,10.6-14.3,21.6-20,33.3
		c-8.3,17.1-12.9,35.1-13.4,54c-0.3,9.9-0.1,19.8-0.1,29.8c0,0.9,0.3,1.8,0.4,3c1.9,0.1,3.6,0.2,5.4,0.2c13,0,25.9,0,38.9,0
		c4.5,0,9,0,13.4,0c1,0,2.1-0.4,3.3-0.6c0-1.9,0-3.5,0-5c0-6.1,0.1-12.2,0-18.2c-0.1-9.4,1.6-18.4,4.6-27.3c3-9,7.3-17.4,12.2-25.5
		c6.5-10.9,13.8-21.1,21.4-31.3c10.8-14.5,20.8-29.6,28.7-45.9c10.4-21.1,15.9-43.5,16.1-67c0.1-8-0.1-16-1.1-24
		c-1.3-11.3-3.6-22.4-7.8-33.1c-11-28.2-31.1-46.3-60.4-54c-11.4-3-23-4.1-34.7-4.1c-10.7,0-21.4,0.9-31.9,3.3
		c-29.3,6.9-49.9,24.2-61.5,52c-5.5,13.1-8.2,26.9-9.2,41c-1.4,19.2-0.5,38.4-0.7,57.6c0,0.9,0.4,1.8,0.5,2.6
		C311.4,1480.2,367.9,1480.1,372.1,1479.5z M432.4,1777.6c0.3-1,0.6-1.4,0.6-1.9c0-21.4,0-42.8,0-64.2c0-0.4-0.3-0.9-0.4-1.4
		c-0.5-0.2-0.9-0.4-1.4-0.4c-21.4,0-42.8,0-64.2,0c-0.4,0-0.9,0.3-1.4,0.4c-0.2,0.5-0.4,0.9-0.4,1.4c0,21.4,0,42.8,0,64.2
		c0,0.4,0.3,0.9,0.6,1.8C387.8,1777.6,410,1777.6,432.4,1777.6z"/>
	<path class="st0" d="M588.3,1172.2c-0.2-0.5-0.4-0.8-0.4-1.1c8.9-92.8,17.9-185.5,26.9-278.3c0-0.3,0.3-0.5,0.6-1
		c0.9-0.1,2-0.3,3.1-0.3c6.1,0,12.2-0.1,18.2,0c8.9,0.1,14.4,4,17.1,12.5c0.9,2.7,1.6,5.6,1.7,8.4c0.2,6.2,0.4,12.5-0.2,18.7
		c-2.5,23.5-5.4,47-8,70.5c-2.1,18.3-4.1,36.5-6.2,54.8c-2.1,18.1-4.2,36.2-6.3,54.3c-1.1,9.4-2.1,18.7-3.2,28.1
		c-0.7,5.7-1.6,11.4-3.7,16.8c-1,2.7-2.2,5.3-3.8,7.7c-3.6,5.6-8.8,8.7-15.5,9.1c-1.6,0.1-3.2,0.1-4.8,0.1c-4.2,0-8.3,0-12.5,0
		C590.4,1172.5,589.3,1172.3,588.3,1172.2z"/>
	<path class="st0" d="M337.4,1036.6c0.5,34.4,1,68.8,1.5,103.2c0.1,5.8,0.1,11.5-0.9,17.2c-0.6,3.5-1.4,6.9-2.9,10.1
		c-3,6.4-7.8,10-14.9,10.4c-7.1,0.3-12.8-2.4-16.6-8.6c-2.7-4.4-4.2-9.4-4.9-14.4c-0.6-4.1-0.9-8.3-1.1-12.4
		c-0.9-25.4-1.7-50.8-2.6-76.3c-0.4-12.9-0.8-25.9-1.2-38.9c-0.9-26.5-1.8-53.1-2.5-79.6c-0.3-10.4-0.4-20.8-0.4-31.2
		c0-5.5,1-10.8,2.8-16c0.9-2.4,1.9-4.8,3.3-6.9c7-10.9,21.6-9.9,28.4-3c2.5,2.6,4.3,5.5,5.7,8.8c2.1,4.9,3.3,10.1,3.8,15.3
		c0.5,5.2,0.9,10.5,1,15.8C336.5,965.6,336.9,1001.1,337.4,1036.6C337.4,1036.6,337.4,1036.6,337.4,1036.6z"/>
	<path class="st0" d="M489.5,1033c-0.7,13-1.5,29.4-2.4,45.9c-0.4,7.5-0.8,15-1.1,22.5c-0.7,14.5-1.4,29.1-2.1,43.6
		c-0.3,5.6-1.2,11.1-2.9,16.5c-1,3.2-2.5,6.2-4.5,9c-5.7,7.7-15.6,8.3-22,5.5c-3.2-1.4-5.5-3.8-7.2-6.7c-1.9-3.4-3-7-3.6-10.8
		c-0.9-4.9-1-9.9-0.9-14.8c0.4-14.5,0.9-29.1,1.4-43.6c0.4-12.6,0.9-25.3,1.3-37.9c0.8-26.1,1.5-52.1,2.3-78.2
		c0.6-19.2,1.2-38.4,1.9-57.5c0.3-7.8,1.2-15.6,3.6-23.1c1.2-3.7,2.7-7.2,5.1-10.3c4.9-6.5,12.5-9.2,20.4-7.3c4.3,1,7.5,3.4,10,7
		c1.9,2.8,3.2,5.9,4.1,9.2c2,7,2.3,14.2,2.1,21.4c-0.4,12.3-1,24.6-1.6,36.9c-0.4,7.7-0.8,15.3-1.2,23
		C491.1,998.6,490.4,1014,489.5,1033z"/>
	<path class="st0" d="M561.4,191.3c-0.3-4.2,6.2-105.5,7.1-109.7c0.8-0.1,1.7-0.4,2.6-0.4c5.1,0,10.2,0,15.3,0
		c7.2-0.1,13.1,3.4,15.8,11.5c1.5,4.4,2.1,9,2.3,13.7c0.2,3.7,0.2,7.4,0,11c-0.8,12.4-1.7,24.9-2.7,37.3c-0.5,6.5-1.4,13.1-3.7,19.2
		c-1.1,3-2.4,5.9-4.2,8.6c-3.7,5.7-9.2,8.9-16,9.3c-5.1,0.3-10.2,0.1-15.3,0.1C562.2,191.8,561.8,191.5,561.4,191.3z"/>
</g>
</svg>
